<svg xmlns="http://www.w3.org/2000/svg" version="1.1" xmlns:xlink="http://www.w3.org/1999/xlink" width="1000" height="1000"><metadata><rdf:RDF xmlns:rdf="http://www.w3.org/1999/02/22-rdf-syntax-ns#" xmlns:dc="http://purl.org/dc/elements/1.1/"><rdf:Description><dc:creator>RealFaviconGenerator</dc:creator><dc:source>https://realfavicongenerator.net</dc:source></rdf:Description></rdf:RDF></metadata><g clip-path="url(#SvgjsClipPath1009)"><rect width="1000" height="1000" fill="#ffffff"></rect><g transform="matrix(0.875,0,0,0.875,150,150)"><svg xmlns="http://www.w3.org/2000/svg" version="1.1" xmlns:xlink="http://www.w3.org/1999/xlink" fill="#000000" height="800px" width="800px" id="Capa_1" viewBox="0 0 487.85 487.85" xml:space="preserve"><g id="SVGRepo_bgCarrier" stroke-width="0"></g><g id="SVGRepo_tracerCarrier" stroke-linecap="round" stroke-linejoin="round"></g><g id="SVGRepo_iconCarrier"> <g> <g> <path d="M243.925,98.525c-93.2,0-177.7,50.9-240.1,133.8c-5.1,6.8-5.1,16.2,0,23c62.4,83,146.9,134,240.1,134 s177.7-50.9,240.1-133.8c5.1-6.8,5.1-16.2,0-23C421.625,149.525,337.125,98.525,243.925,98.525z M250.625,346.325 c-61.9,3.9-112.9-47.1-109-109c3.2-51,44.6-92.5,95.7-95.7c61.9-3.9,112.9,47.1,109,109 C343.025,301.625,301.625,343.025,250.625,346.325z"></path> <path d="M247.525,299.025c-33.3,2.1-60.8-25.4-58.7-58.7c1.7-27.5,24-49.8,51.5-51.5c33.3-2.1,60.8,25.4,58.7,58.7 C297.325,275.025,275.025,297.325,247.525,299.025z"></path> </g> </g> </g></svg></g></g><defs><clipPath id="SvgjsClipPath1009"><rect width="1000" height="1000" x="0" y="0" rx="350" ry="350"></rect></clipPath></defs></svg>